<svg width="20" height="20" viewBox="0 0 20 20" fill="none" xmlns="http://www.w3.org/2000/svg">
<path d="M6.625 14.75C5.73117 14.75 5 15.4812 5 16.375C5 17.2689 5.73117 18 6.625 18C7.51883 18 8.25004 17.2689 8.25004 16.375C8.25 15.4811 7.51879 14.75 6.625 14.75ZM1.875 2V3.625H3.5L6.42512 9.55008L5.20215 11.5405C5.08035 11.7436 4.99902 12.028 4.99902 12.3125C4.99902 13.4004 5.74219 13.9375 6.75 13.9375H16.25V12.375H6.94895C6.82715 12.375 6.74582 12.2937 6.74582 12.1719C6.74582 12.1314 6.83203 11.9688 6.83203 11.9688L7.64383 10.6875H13.6967C14.3061 10.6875 14.8345 10.3627 15.1186 9.83457L18.0437 4.80332C18.092 4.70719 18.125 4.55934 18.125 4.39711C18.125 3.95 17.7592 3.62504 17.3125 3.62504H5.28766L4.51562 2H1.875ZM14.625 14.75C13.7311 14.75 13 15.4812 13 16.375C13 17.2689 13.7311 18 14.625 18C15.5188 18 16.25 17.2688 16.25 16.375C16.25 15.4811 15.5188 14.75 14.625 14.75Z" fill="#533190"/>
</svg>
