<svg width="784" height="75" viewBox="0 0 784 75" fill="none" xmlns="http://www.w3.org/2000/svg">
<path d="M782.286 71.383L783.277 71.25C783.411 72.25 783.513 73.262 783.577 74.27L782.577 74.336C782.516 73.346 782.417 72.357 782.286 71.383ZM781.095 65.583L782.057 65.311C782.327 66.272 782.568 67.264 782.771 68.262L781.792 68.462C781.593 67.486 781.358 66.515 781.095 65.58V65.583ZM779.052 60.034L779.959 59.612C780.379 60.518 780.771 61.461 781.124 62.42L780.186 62.766C779.841 61.829 779.461 60.912 779.051 60.031L779.052 60.034ZM776.094 54.928L776.909 54.348C777.491 55.166 778.045 56.029 778.555 56.911L777.689 57.411C777.195 56.554 776.658 55.718 776.093 54.925L776.094 54.928ZM772.229 50.479L772.916 49.752C773.651 50.452 774.36 51.187 775.025 51.952L774.27 52.609C773.627 51.865 772.941 51.146 772.229 50.476V50.479ZM767.573 46.865L768.108 46.019C768.969 46.567 769.808 47.154 770.602 47.77L769.989 48.561C769.219 47.963 768.407 47.392 767.573 46.863V46.865ZM762.324 44.154L762.707 43.23C763.652 43.621 764.58 44.05 765.466 44.507L765.009 45.396C764.146 44.946 763.244 44.533 762.324 44.152V44.154ZM756.699 42.302L756.945 41.332C757.938 41.584 758.918 41.867 759.859 42.176L759.547 43.126C758.628 42.824 757.667 42.546 756.699 42.3V42.302ZM750.865 41.202L750.995 40.21C752.009 40.343 753.015 40.503 753.986 40.684L753.801 41.667C752.849 41.483 751.861 41.326 750.867 41.197L750.865 41.202ZM744.935 40.722L744.97 39.722C745.99 39.759 747.004 39.815 747.987 39.894L747.908 40.894C746.939 40.808 745.939 40.751 744.936 40.717L744.935 40.722ZM738.955 40.678V39.678H741.965V40.678H738.955ZM732.955 40.678V39.678H735.963V40.678H732.955ZM726.955 40.678V39.678H729.955V40.678H726.955ZM720.948 40.678V39.678H723.948V40.678H720.948ZM714.948 40.678V39.678H717.948V40.678H714.948ZM708.948 40.678V39.678H711.948V40.678H708.948ZM702.948 40.678V39.678H705.948V40.678H702.948ZM696.948 40.678V39.678H699.948V40.678H696.948ZM690.948 40.678V39.678H693.948V40.678H690.948ZM684.948 40.678V39.678H687.948V40.678H684.948ZM678.948 40.678V39.678H681.948V40.678H678.948ZM672.948 40.678V39.678H675.948V40.678H672.948ZM666.948 40.678V39.678H669.948V40.678H666.948ZM660.948 40.678V39.678H663.948V40.678H660.948ZM654.948 40.678V39.678H657.948V40.678H654.948ZM648.948 40.678V39.678H651.948V40.678H648.948ZM642.948 40.678V39.678H645.948V40.678H642.948ZM636.948 40.678V39.678H639.948V40.678H636.948ZM630.948 40.678V39.678H633.948V40.678H630.948ZM624.948 40.678V39.678H627.948V40.678H624.948ZM618.948 40.678V39.678H621.948V40.678H618.948ZM612.948 40.678V39.678H615.948V40.678H612.948ZM606.948 40.678V39.678H609.948V40.678H606.948ZM600.948 40.678V39.678H603.948V40.678H600.948ZM594.948 40.678V39.678H597.948V40.678H594.948ZM588.948 40.678V39.678H591.948V40.678H588.948ZM582.948 40.678V39.678H585.948V40.678H582.948ZM576.948 40.678V39.678H579.948V40.678H576.948ZM570.948 40.678V39.678H573.948V40.678H570.948ZM564.948 40.678V39.678H567.948V40.678H564.948ZM558.948 40.678V39.678H561.948V40.678H558.948ZM552.948 40.678V39.678H555.948V40.678H552.948ZM546.943 40.678V39.678H549.943V40.678H546.943ZM540.943 40.678V39.678H543.943V40.678H540.943ZM534.943 40.678V39.678H537.943V40.678H534.943ZM528.943 40.678V39.678H531.943V40.678H528.943ZM522.943 40.678V39.678H525.943V40.678H522.943ZM516.943 40.678V39.678H519.943V40.678H516.943ZM510.943 40.678V39.678H513.943V40.678H510.943ZM504.936 40.678V39.678H507.945V40.678H504.936ZM498.936 40.678V39.678H501.948V40.678H498.936ZM492.936 40.678V39.678H495.936V40.678H492.936ZM487.436 40.678H485.713V39.678H489.932V40.678H487.436ZM479.705 40.678V39.678H482.718V40.678H479.705ZM473.72 40.678V39.678H476.72V40.678H473.72ZM467.715 40.678V39.678H470.715V40.678H467.715ZM461.701 40.678V39.678H464.707V40.678H461.701ZM455.72 40.678V39.678H458.72V40.678H455.72ZM449.701 40.678V39.678H452.713V40.678H449.701ZM443.716 40.678V39.678H446.716V40.678H443.716ZM437.716 40.678V39.678H440.7V40.678H437.716ZM431.707 40.678V39.678H434.707V40.678H431.707ZM425.699 40.678V39.678H428.716V40.678H425.699ZM419.707 40.678V39.678H422.715V40.678H419.707ZM413.707 40.678V39.678H416.707V40.678H413.707ZM407.707 40.678V39.678H410.701V40.678H407.707ZM401.707 40.678V39.678H404.698V40.678H401.707ZM395.707 40.678V39.678H398.696V40.678H395.707ZM389.707 40.678V39.678H392.695V40.678H389.707ZM383.707 40.678V39.678H386.696V40.678H383.707ZM377.707 40.678V39.678H380.698V40.678H377.707ZM371.707 40.678V39.678H374.7V40.678H371.707ZM365.707 40.678V39.678H368.702V40.678H365.707ZM359.707 40.678V39.678H362.707V40.678H359.707ZM353.707 40.678V39.678H356.707V40.678H353.707ZM347.707 40.678V39.678H350.713V40.678H347.707ZM341.707 40.678V39.678H344.716V40.678H341.707ZM335.707 40.678V39.678H338.707V40.678H335.707ZM329.707 40.678V39.678H332.707V40.678H329.707ZM323.707 40.678V39.678H326.707V40.678H323.707ZM317.707 40.678V39.678H320.707V40.678H317.707ZM311.707 40.678V39.678H314.707V40.678H311.707ZM305.707 40.678V39.678H308.707V40.678H305.707ZM299.707 40.678V39.678H302.707V40.678H299.707ZM293.707 40.678V39.678H296.707V40.678H293.707ZM287.707 40.678V39.678H290.707V40.678H287.707ZM281.707 40.678V39.678H284.707V40.678H281.707ZM275.707 40.678V39.678H278.707V40.678H275.707ZM269.707 40.678V39.678H272.707V40.678H269.707ZM263.707 40.678V39.678H266.707V40.678H263.707ZM257.707 40.678V39.678H260.707V40.678H257.707ZM251.707 40.678V39.678H254.707V40.678H251.707ZM245.707 40.678V39.678H248.707V40.678H245.707ZM239.707 40.678V39.678H242.707V40.678H239.707ZM233.707 40.678V39.678H236.707V40.678H233.707ZM227.707 40.678V39.678H230.707V40.678H227.707ZM221.707 40.678V39.678H224.707V40.678H221.707ZM215.707 40.678V39.678H218.707V40.678H215.707ZM209.707 40.678V39.678H212.707V40.678H209.707ZM203.707 40.678V39.678H206.707V40.678H203.707ZM197.707 40.678V39.678H200.707V40.678H197.707ZM191.707 40.678V39.678H194.707V40.678H191.707ZM185.707 40.678V39.678H188.715V40.678H185.707ZM179.707 40.678V39.678H182.715V40.678H179.707ZM173.707 40.678V39.678H176.707V40.678H173.707ZM167.707 40.678V39.678H170.707V40.678H167.707ZM161.707 40.678V39.678H164.707V40.678H161.707ZM155.707 40.678V39.678H158.702V40.678H155.707ZM149.707 40.678V39.678H152.699V40.678H149.707ZM143.707 40.678V39.678H146.697V40.678H143.707ZM137.707 40.678V39.678H140.696V40.678H137.707ZM131.707 40.678V39.678H134.697V40.678H131.707ZM125.707 40.678V39.678H128.698V40.678H125.707ZM119.707 40.678V39.678H122.702V40.678H119.707ZM113.707 40.678V39.678H116.707V40.678H113.707ZM107.707 40.678V39.678H110.713V40.678H107.707ZM101.707 40.678V39.678H104.722V40.678H101.707ZM95.7068 40.678V39.678H98.7159V40.678H95.7068ZM89.7198 40.678V39.678H92.7058V40.678H89.7198ZM83.7068 40.678V39.678H86.7068V40.678H83.7068ZM77.7068 40.678V39.678H80.7217V40.678H77.7068ZM71.7188 40.678V39.678H74.7058V40.678H71.7188ZM65.7049 40.678V39.678H68.7159V40.678H65.7049ZM59.7049 40.678V39.678H62.7049V40.678H59.7049ZM53.7049 40.678V39.678H56.7049V40.678H53.7049ZM47.7049 40.678V39.678H50.7049V40.678H47.7049ZM41.7049 40.678V39.678H44.7278V40.678H41.7049ZM35.6958 40.464L35.7749 39.464C36.7419 39.541 37.7419 39.598 38.7469 39.634L38.7119 40.634C37.6589 40.594 36.6448 40.536 35.6668 40.459L35.6958 40.464ZM29.6958 39.672L29.8809 38.69C30.8329 38.868 31.821 39.026 32.816 39.155L32.6868 40.147C31.6388 40.009 30.6338 39.846 29.6668 39.667L29.6958 39.672ZM23.8228 38.178L24.1348 37.227C25.0548 37.527 26.0119 37.807 26.9829 38.051L26.7369 39.022C25.7109 38.766 24.7298 38.482 23.7898 38.173L23.8228 38.178ZM18.2159 35.846L18.6739 34.957C19.5349 35.4 20.4379 35.819 21.3579 36.199L20.9749 37.123C19.9969 36.728 19.0669 36.299 18.1829 35.846H18.2159ZM13.0808 32.584L13.6939 31.792C14.4629 32.392 15.2759 32.959 16.1099 33.492L15.5738 34.337C14.6798 33.783 13.8419 33.195 13.0469 32.58L13.0808 32.584ZM8.65677 28.402L9.41288 27.746C10.0549 28.486 10.7409 29.201 11.4529 29.875L10.7669 30.601C9.99688 29.901 9.28784 29.162 8.62284 28.398L8.65677 28.402ZM5.12894 23.443L5.99393 22.943C6.48893 23.798 7.0249 24.634 7.5889 25.428L6.77372 26.007C6.15772 25.183 5.60476 24.32 5.09476 23.439L5.12894 23.443ZM2.55985 17.934L3.49784 17.588C3.84084 18.521 4.22187 19.44 4.63187 20.321L3.72586 20.743C3.26686 19.831 2.87791 18.888 2.52591 17.93L2.55985 17.934ZM0.910923 12.091L1.88993 11.891C2.08993 12.865 2.32488 13.836 2.58988 14.772L1.62674 15.043C1.32074 14.078 1.08174 13.085 0.876743 12.087L0.910923 12.091ZM0.100864 6.082L1.10086 6.01599C1.16686 6.99999 1.26791 7.99399 1.40091 8.96899L0.409946 9.10199C0.237946 8.10099 0.135929 7.086 0.0669287 6.078L0.100864 6.082ZM0.000766616 3.05099C-0.00652717 2.03238 0.0382309 1.01406 0.1348 0L1.12894 0.113983C1.03726 1.0909 0.994363 2.07182 1.00077 3.05301L0.000766616 3.05099Z" fill="url(#paint0_linear_355_21)"/>
<defs>
<linearGradient id="paint0_linear_355_21" x1="391.788" y1="0" x2="391.788" y2="74.336" gradientUnits="userSpaceOnUse">
<stop stop-color="#5A4BDA"/>
<stop offset="1" stop-color="#EB427E"/>
</linearGradient>
</defs>
</svg>
