<svg width="808" height="90" viewBox="0 0 808 90" fill="none" xmlns="http://www.w3.org/2000/svg">
<path d="M806.669 86.4247L807.691 86.2637C807.829 87.4744 807.934 88.6997 808 89.9201L806.969 90C806.906 88.8014 806.804 87.604 806.669 86.4247ZM805.44 79.4026L806.433 79.0732C806.711 80.2367 806.959 81.4378 807.169 82.6461L806.159 82.8882C805.954 81.7066 805.712 80.531 805.44 79.399V79.4026ZM803.334 72.6843L804.269 72.1734C804.702 73.2703 805.106 74.412 805.47 75.5731L804.503 75.992C804.147 74.8575 803.756 73.7473 803.333 72.6807L803.334 72.6843ZM800.284 66.5023L801.124 65.8002C801.724 66.7906 802.295 67.8354 802.821 68.9032L801.928 69.5086C801.419 68.471 800.865 67.4588 800.283 66.4987L800.284 66.5023ZM796.298 61.1159L797.007 60.2357C797.765 61.0832 798.496 61.9731 799.182 62.8993L798.403 63.6947C797.74 62.7939 797.032 61.9234 796.298 61.1123V61.1159ZM791.497 56.7403L792.049 55.7161C792.937 56.3795 793.802 57.0903 794.621 57.8361L793.988 58.7937C793.194 58.0697 792.357 57.3784 791.497 56.7379V56.7403ZM786.084 53.4581L786.479 52.3394C787.454 52.8127 788.411 53.3322 789.324 53.8855L788.853 54.9618C787.963 54.417 787.033 53.9169 786.084 53.4556V53.4581ZM780.284 51.2158L780.538 50.0414C781.562 50.3465 782.572 50.6892 783.543 51.0633L783.221 52.2134C782.273 51.8478 781.282 51.5112 780.284 51.2134V51.2158ZM774.268 49.8841L774.402 48.683C775.448 48.8441 776.485 49.0378 777.487 49.2569L777.296 50.447C776.314 50.2242 775.295 50.0342 774.27 49.878L774.268 49.8841ZM768.154 49.3029L768.19 48.0922C769.241 48.137 770.287 48.2048 771.301 48.3004L771.219 49.5111C770.22 49.407 769.189 49.338 768.154 49.2968L768.154 49.3029ZM761.987 49.2496V48.0389H765.091V49.2496H761.987ZM755.8 49.2496V48.0389H758.902V49.2496H755.8ZM749.613 49.2496V48.0389H752.707V49.2496H749.613ZM743.419 49.2496V48.0389H746.512V49.2496H743.419ZM737.232 49.2496V48.0389H740.325V49.2496H737.232ZM731.045 49.2496V48.0389H734.138V49.2496H731.045ZM724.858 49.2496V48.0389H727.951V49.2496H724.858ZM718.671 49.2496V48.0389H721.764V49.2496H718.671ZM712.484 49.2496V48.0389H715.577V49.2496H712.484ZM706.297 49.2496V48.0389H709.39V49.2496H706.297ZM700.11 49.2496V48.0389H703.203V49.2496H700.11ZM693.923 49.2496V48.0389H697.016V49.2496H693.923ZM687.736 49.2496V48.0389H690.829V49.2496H687.736ZM681.549 49.2496V48.0389H684.642V49.2496H681.549ZM675.362 49.2496V48.0389H678.455V49.2496H675.362ZM669.175 49.2496V48.0389H672.268V49.2496H669.175ZM662.988 49.2496V48.0389H666.081V49.2496H662.988ZM656.801 49.2496V48.0389H659.894V49.2496H656.801ZM650.614 49.2496V48.0389H653.707V49.2496H650.614ZM644.427 49.2496V48.0389H647.52V49.2496H644.427ZM638.24 49.2496V48.0389H641.333V49.2496H638.24ZM632.053 49.2496V48.0389H635.146V49.2496H632.053ZM625.866 49.2496V48.0389H628.959V49.2496H625.866ZM619.679 49.2496V48.0389H622.772V49.2496H619.679ZM613.492 49.2496V48.0389H616.585V49.2496H613.492ZM607.305 49.2496V48.0389H610.398V49.2496H607.305ZM601.118 49.2496V48.0389H604.211V49.2496H601.118ZM594.931 49.2496V48.0389H598.024V49.2496H594.931ZM588.743 49.2496V48.0389H591.837V49.2496H588.743ZM582.557 49.2496V48.0389H585.65V49.2496H582.557ZM576.37 49.2496V48.0389H579.463V49.2496H576.37ZM570.182 49.2496V48.0389H573.276V49.2496H570.182ZM563.99 49.2496V48.0389H567.084V49.2496H563.99ZM557.803 49.2496V48.0389H560.897V49.2496H557.803ZM551.616 49.2496V48.0389H554.71V49.2496H551.616ZM545.429 49.2496V48.0389H548.523V49.2496H545.429ZM539.242 49.2496V48.0389H542.336V49.2496H539.242ZM533.055 49.2496V48.0389H536.149V49.2496H533.055ZM526.868 49.2496V48.0389H529.962V49.2496H526.868ZM520.674 49.2496V48.0389H523.777V49.2496H520.674ZM514.487 49.2496V48.0389H517.593V49.2496H514.487ZM508.3 49.2496V48.0389H511.393V49.2496H508.3ZM502.629 49.2496H500.852V48.0389H505.202V49.2496H502.629ZM494.657 49.2496V48.0389H497.763V49.2496H494.657ZM488.485 49.2496V48.0389H491.578V49.2496H488.485ZM482.293 49.2496V48.0389H485.386V49.2496H482.293ZM476.091 49.2496V48.0389H479.191V49.2496H476.091ZM469.924 49.2496V48.0389H473.017V49.2496H469.924ZM463.717 49.2496V48.0389H466.823V49.2496H463.717ZM457.546 49.2496V48.0389H460.639V49.2496H457.546ZM451.359 49.2496V48.0389H454.436V49.2496H451.359ZM445.163 49.2496V48.0389H448.256V49.2496H445.163ZM438.967 49.2496V48.0389H442.078V49.2496H438.967ZM432.789 49.2496V48.0389H435.89V49.2496H432.789ZM426.602 49.2496V48.0389H429.695V49.2496H426.602ZM420.415 49.2496V48.0389H423.502V49.2496H420.415ZM414.228 49.2496V48.0389H417.312V49.2496H414.228ZM408.04 49.2496V48.0389H411.123V49.2496H408.04ZM401.853 49.2496V48.0389H404.935V49.2496H401.853ZM395.666 49.2496V48.0389H398.749V49.2496H395.666ZM389.479 49.2496V48.0389H392.564V49.2496H389.479ZM383.292 49.2496V48.0389H386.379V49.2496H383.292ZM377.105 49.2496V48.0389H380.194V49.2496H377.105ZM370.918 49.2496V48.0389H374.012V49.2496H370.918ZM364.731 49.2496V48.0389H367.825V49.2496H364.731ZM358.544 49.2496V48.0389H361.644V49.2496H358.544ZM352.357 49.2496V48.0389H355.46V49.2496H352.357ZM346.17 49.2496V48.0389H349.264V49.2496H346.17ZM339.983 49.2496V48.0389H343.077V49.2496H339.983ZM333.796 49.2496V48.0389H336.89V49.2496H333.796ZM327.609 49.2496V48.0389H330.703V49.2496H327.609ZM321.422 49.2496V48.0389H324.516V49.2496H321.422ZM315.235 49.2496V48.0389H318.329V49.2496H315.235ZM309.048 49.2496V48.0389H312.142V49.2496H309.048ZM302.861 49.2496V48.0389H305.955V49.2496H302.861ZM296.674 49.2496V48.0389H299.768V49.2496H296.674ZM290.487 49.2496V48.0389H293.581V49.2496H290.487ZM284.3 49.2496V48.0389H287.394V49.2496H284.3ZM278.113 49.2496V48.0389H281.207V49.2496H278.113ZM271.926 49.2496V48.0389H275.02V49.2496H271.926ZM265.739 49.2496V48.0389H268.833V49.2496H265.739ZM259.552 49.2496V48.0389H262.646V49.2496H259.552ZM253.365 49.2496V48.0389H256.459V49.2496H253.365ZM247.178 49.2496V48.0389H250.272V49.2496H247.178ZM240.991 49.2496V48.0389H244.085V49.2496H240.991ZM234.804 49.2496V48.0389H237.898V49.2496H234.804ZM228.617 49.2496V48.0389H231.711V49.2496H228.617ZM222.43 49.2496V48.0389H225.524V49.2496H222.43ZM216.243 49.2496V48.0389H219.337V49.2496H216.243ZM210.056 49.2496V48.0389H213.15V49.2496H210.056ZM203.869 49.2496V48.0389H206.963V49.2496H203.869ZM197.682 49.2496V48.0389H200.776V49.2496H197.682ZM191.495 49.2496V48.0389H194.597V49.2496H191.495ZM185.308 49.2496V48.0389H188.41V49.2496H185.308ZM179.121 49.2496V48.0389H182.215V49.2496H179.121ZM172.934 49.2496V48.0389H176.028V49.2496H172.934ZM166.747 49.2496V48.0389H169.841V49.2496H166.747ZM160.56 49.2496V48.0389H163.648V49.2496H160.56ZM154.373 49.2496V48.0389H157.458V49.2496H154.373ZM148.186 49.2496V48.0389H151.269V49.2496H148.186ZM141.999 49.2496V48.0389H145.081V49.2496H141.999ZM135.812 49.2496V48.0389H138.895V49.2496H135.812ZM129.625 49.2496V48.0389H132.709V49.2496H129.625ZM123.438 49.2496V48.0389H126.526V49.2496H123.438ZM117.251 49.2496V48.0389H120.344V49.2496H117.251ZM111.064 49.2496V48.0389H114.164V49.2496H111.064ZM104.877 49.2496V48.0389H107.986V49.2496H104.877ZM98.6899 49.2496V48.0389H101.793V49.2496H98.6899ZM92.5162 49.2496V48.0389H95.5954V49.2496H92.5162ZM86.3158 49.2496V48.0389H89.4094V49.2496H86.3158ZM80.1288 49.2496V48.0389H83.2377V49.2496H80.1288ZM73.9542 49.2496V48.0389H77.0343V49.2496H73.9542ZM67.7528 49.2496V48.0389H70.8576V49.2496H67.7528ZM61.5658 49.2496V48.0389H64.6593V49.2496H61.5658ZM55.3788 49.2496V48.0389H58.4723V49.2496H55.3788ZM49.1918 49.2496V48.0389H52.2853V49.2496H49.1918ZM43.0048 49.2496V48.0389H46.1219V49.2496H43.0048ZM36.8084 48.9905L36.89 47.7798C37.8871 47.873 38.9182 47.942 39.9545 47.9856L39.9185 49.1963C38.8327 49.1479 37.787 49.0777 36.7785 48.9845L36.8084 48.9905ZM30.6214 48.0316L30.8122 46.8427C31.7939 47.0582 32.8128 47.2495 33.8388 47.4057L33.7056 48.6067C32.6249 48.4396 31.5886 48.2423 30.5915 48.0256L30.6214 48.0316ZM24.5653 46.2228L24.8871 45.0714C25.8357 45.4346 26.8227 45.7737 27.824 46.0691L27.5702 47.2446C26.5122 46.9347 25.5006 46.5909 24.5313 46.2167L24.5653 46.2228ZM18.7836 43.3994L19.2559 42.3231C20.1437 42.8594 21.075 43.3667 22.0236 43.8268L21.6286 44.9455C20.6202 44.4673 19.6612 43.9479 18.7496 43.3994H18.7836ZM13.4886 39.45L14.1207 38.4912C14.9137 39.2176 15.752 39.9041 16.612 40.5494L16.0592 41.5724C15.1373 40.9017 14.2733 40.1898 13.4536 39.4452L13.4886 39.45ZM8.92659 34.3868L9.70626 33.5926C10.3683 34.4885 11.0757 35.3542 11.8099 36.1702L11.1025 37.0492C10.3085 36.2017 9.57733 35.307 8.8916 34.382L8.92659 34.3868ZM5.2888 28.3829L6.18075 27.7775C6.69118 28.8127 7.24386 29.8248 7.82544 30.7861L6.98484 31.4872C6.34964 30.4896 5.77945 29.4447 5.25356 28.3781L5.2888 28.3829ZM2.63964 21.713L3.60686 21.2941C3.96055 22.4237 4.35346 23.5364 4.77624 24.603L3.84199 25.1139C3.36869 24.0097 2.96761 22.868 2.60464 21.7082L2.63964 21.713ZM0.939315 14.6388L1.94883 14.3966C2.15507 15.5759 2.39734 16.7515 2.6706 17.8847L1.67745 18.2128C1.36191 17.0445 1.11546 15.8423 0.90407 14.634L0.939315 14.6388ZM0.104008 7.36359L1.13518 7.28367C1.20323 8.47502 1.30743 9.67848 1.44458 10.8589L0.422724 11.02C0.245363 9.80802 0.140165 8.57916 0.0690148 7.35875L0.104008 7.36359ZM0.000790511 3.6939C-0.00673061 2.46064 0.0394225 1.22774 0.139001 0L1.16413 0.138002C1.06959 1.32077 1.02536 2.50839 1.03196 3.69634L0.000790511 3.6939Z" fill="url(#paint0_linear_147_1619)"/>
<defs>
<linearGradient id="paint0_linear_147_1619" x1="404" y1="0" x2="404" y2="90" gradientUnits="userSpaceOnUse">
<stop stop-color="#5A4BDA"/>
<stop offset="1" stop-color="#EB427E"/>
</linearGradient>
</defs>
</svg>
