<svg width="784" height="81" viewBox="0 0 784 81" fill="none" xmlns="http://www.w3.org/2000/svg">
<path d="M0.000513613 77.3047H1.00051C0.993737 78.2865 1.03608 79.2685 1.12747 80.2461L0.136256 80.3574C0.0397337 79.3423 -0.00539922 78.3243 0.000513613 77.3047ZM0.1011 74.2734C0.1671 73.2674 0.270904 72.2529 0.400904 71.2559L1.39212 71.3887C1.26012 72.3617 1.16033 73.3578 1.09133 74.3398L0.1011 74.2734ZM0.908717 68.2637C1.10872 67.2637 1.35161 66.2755 1.62161 65.3125L2.5845 65.5859C2.3245 66.5219 2.0843 67.4938 1.8843 68.4668L0.908717 68.2637ZM2.5552 62.4238C2.9092 61.4648 3.30122 60.5242 3.72122 59.6152L4.62747 60.0352C4.21747 60.9182 3.83965 61.8336 3.49465 62.7656L2.5552 62.4238ZM5.12356 56.9141C5.63356 56.0311 6.19102 55.1716 6.77102 54.3516L7.58352 54.9316C7.02152 55.7246 6.4837 56.5611 5.9927 57.4141L5.12356 56.9141ZM8.65481 51.957C9.32054 51.1885 10.0241 50.4531 10.7642 49.7559L11.4497 50.4824C10.7344 51.157 10.0537 51.8694 9.41067 52.6133L8.65481 51.957ZM13.0786 47.7734C13.8716 47.1544 14.7118 46.5685 15.5708 46.0215L16.105 46.8672C15.274 47.3962 14.4609 47.9664 13.6919 48.5664L13.0786 47.7734ZM18.2154 44.5098C19.0984 44.0528 20.0282 43.6225 20.9722 43.2305L21.355 44.1582C20.435 44.5412 19.5324 44.9564 18.6724 45.3984L18.2154 44.5098ZM23.8159 42.1777C24.7599 41.8707 25.737 41.588 26.729 41.334L26.979 42.3047C26.006 42.5507 25.0475 42.83 24.1265 43.127L23.8159 42.1777ZM29.689 40.6777C30.662 40.4977 31.6662 40.3381 32.6812 40.2051L32.8091 41.1973C31.8091 41.3243 30.8265 41.4841 29.8765 41.6641L29.689 40.6777ZM35.689 39.8887C36.671 39.8087 37.6886 39.7518 38.7056 39.7148L38.7388 40.7148C37.7388 40.7538 36.7391 40.8148 35.7691 40.8848L35.689 39.8887ZM738.98 40.6738V39.6738H742.005V40.6738H738.98ZM733.007 40.6738V39.6738H736.007V40.6738H733.007ZM727.001 40.6738V39.6738H730.001V40.6738H727.001ZM721.001 40.6738V39.6738H724.001V40.6738H721.001ZM714.992 40.6738V39.6738H717.999V40.6738H714.992ZM709 40.6738V39.6738H711.984V40.6738H709ZM702.986 40.6738V39.6738H705.999V40.6738H702.986ZM697 40.6738V39.6738H699.993V40.6738H697ZM691 40.6738V39.6738H693.988V40.6738H691ZM684.99 40.6738V39.6738H687.998V40.6738H684.99ZM678.99 40.6738V39.6738H682.006V40.6738H678.99ZM672.999 40.6738V39.6738H676.006V40.6738H672.999ZM666.999 40.6738V39.6738H669.999V40.6738H666.999ZM660.999 40.6738V39.6738H663.992V40.6738H660.999ZM654.999 40.6738V39.6738H657.992V40.6738H654.999ZM648.999 40.6738V39.6738H651.988V40.6738H648.999ZM642.999 40.6738V39.6738H645.987V40.6738H642.999ZM636.999 40.6738V39.6738H639.987V40.6738H636.999ZM630.999 40.6738V39.6738H633.992V40.6738H630.999ZM624.999 40.6738V39.6738H627.999V40.6738H624.999ZM618.999 40.6738V39.6738H621.999V40.6738H618.999ZM612.999 40.6738V39.6738H615.999V40.6738H612.999ZM606.999 40.6738V39.6738H610.006V40.6738H606.999ZM600.999 40.6738V39.6738H604.005V40.6738H600.999ZM594.999 40.6738V39.6738H598.006V40.6738H594.999ZM588.999 40.6738V39.6738H591.999V40.6738H588.999ZM582.999 40.6738V39.6738H585.999V40.6738H582.999ZM576.999 40.6738V39.6738H579.999V40.6738H576.999ZM570.999 40.6738V39.6738H573.999V40.6738H570.999ZM564.999 40.6738V39.6738H567.999V40.6738H564.999ZM558.999 40.6738V39.6738H561.999V40.6738H558.999ZM552.999 40.6738V39.6738H556.005V40.6738H552.999ZM546.999 40.6738V39.6738H549.999V40.6738H546.999ZM540.999 40.6738V39.6738H543.999V40.6738H540.999ZM534.999 40.6738V39.6738H537.999V40.6738H534.999ZM528.999 40.6738V39.6738H531.999V40.6738H528.999ZM522.999 40.6738V39.6738H525.999V40.6738H522.999ZM516.999 40.6738V39.6738H519.999V40.6738H516.999ZM510.999 40.6738V39.6738H513.999V40.6738H510.999ZM504.999 40.6738V39.6738H507.999V40.6738H504.999ZM498.999 40.6738V39.6738H501.999V40.6738H498.999ZM492.999 40.6738V39.6738H495.999V40.6738H492.999ZM486.999 40.6738V39.6738H490.006V40.6738H486.999ZM480.999 40.6738V39.6738H483.999V40.6738H480.999ZM474.999 40.6738V39.6738H477.999V40.6738H474.999ZM468.999 40.6738V39.6738H471.999V40.6738H468.999ZM462.999 40.6738V39.6738H465.999V40.6738H462.999ZM456.999 40.6738V39.6738H459.999V40.6738H456.999ZM450.999 40.6738V39.6738H453.999V40.6738H450.999ZM444.999 40.6738V39.6738H447.999V40.6738H444.999ZM438.999 40.6738V39.6738H442.006V40.6738H438.999ZM432.999 40.6738V39.6738H436.005V40.6738H432.999ZM426.999 40.6738V39.6738H429.999V40.6738H426.999ZM420.999 40.6738V39.6738H423.999V40.6738H420.999ZM414.999 40.6738V39.6738H417.999V40.6738H414.999ZM408.999 40.6738V39.6738H411.992V40.6738H408.999ZM402.999 40.6738V39.6738H405.988V40.6738H402.999ZM396.999 40.6738V39.6738H399.987V40.6738H396.999ZM390.999 40.6738V39.6738H393.987V40.6738H390.999ZM384.999 40.6738V39.6738H387.987V40.6738H384.999ZM378.999 40.6738V39.6738H381.992V40.6738H378.999ZM372.999 40.6738V39.6738H375.992V40.6738H372.999ZM366.993 40.6738V39.6738H369.993V40.6738H366.993ZM360.993 40.6738V39.6738H364.001V40.6738H360.993ZM354.993 40.6738V39.6738H358.009V40.6738H354.993ZM348.993 40.6738V39.6738H351.993V40.6738H348.993ZM343.002 40.6738V39.6738H345.986V40.6738H343.002ZM336.988 40.6738V39.6738H339.988V40.6738H336.988ZM330.988 40.6738V39.6738H334V40.6738H330.988ZM324.988 40.6738V39.6738H327.988V40.6738H324.988ZM318.997 40.6738V39.6738H322.004V40.6738H318.997ZM312.987 40.6738V39.6738H315.987V40.6738H312.987ZM306.987 40.6738V39.6738H309.987V40.6738H306.987ZM300.987 40.6738V39.6738H304V40.6738H300.987ZM296.265 40.6738H293.774V39.6738H297.994V40.6738H296.265ZM287.773 40.6738V39.6738H290.773V40.6738H287.773ZM281.757 40.6738V39.6738H284.771V40.6738H281.757ZM275.757 40.6738V39.6738H278.764V40.6738H275.757ZM269.757 40.6738V39.6738H272.757V40.6738H269.757ZM263.757 40.6738V39.6738H266.757V40.6738H263.757ZM257.757 40.6738V39.6738H260.757V40.6738H257.757ZM251.757 40.6738V39.6738H254.757V40.6738H251.757ZM245.757 40.6738V39.6738H248.757V40.6738H245.757ZM239.757 40.6738V39.6738H242.757V40.6738H239.757ZM233.757 40.6738V39.6738H236.757V40.6738H233.757ZM227.757 40.6738V39.6738H230.757V40.6738H227.757ZM221.757 40.6738V39.6738H224.757V40.6738H221.757ZM215.757 40.6738V39.6738H218.757V40.6738H215.757ZM209.757 40.6738V39.6738H212.757V40.6738H209.757ZM203.757 40.6738V39.6738H206.757V40.6738H203.757ZM197.757 40.6738V39.6738H200.757V40.6738H197.757ZM191.757 40.6738V39.6738H194.757V40.6738H191.757ZM185.757 40.6738V39.6738H188.757V40.6738H185.757ZM179.757 40.6738V39.6738H182.757V40.6738H179.757ZM173.757 40.6738V39.6738H176.757V40.6738H173.757ZM167.757 40.6738V39.6738H170.757V40.6738H167.757ZM161.757 40.6738V39.6738H164.757V40.6738H161.757ZM155.757 40.6738V39.6738H158.757V40.6738H155.757ZM149.757 40.6738V39.6738H152.757V40.6738H149.757ZM143.757 40.6738V39.6738H146.757V40.6738H143.757ZM137.757 40.6738V39.6738H140.757V40.6738H137.757ZM131.757 40.6738V39.6738H134.757V40.6738H131.757ZM125.757 40.6738V39.6738H128.757V40.6738H125.757ZM119.757 40.6738V39.6738H122.757V40.6738H119.757ZM113.757 40.6738V39.6738H116.757V40.6738H113.757ZM107.757 40.6738V39.6738H110.757V40.6738H107.757ZM101.757 40.6738V39.6738H104.757V40.6738H101.757ZM95.7573 40.6738V39.6738H98.7573V40.6738H95.7573ZM89.7573 40.6738V39.6738H92.7573V40.6738H89.7573ZM83.7573 40.6738V39.6738H86.7573V40.6738H83.7573ZM77.7573 40.6738V39.6738H80.7573V40.6738H77.7573ZM71.7573 40.6738V39.6738H74.7573V40.6738H71.7573ZM65.7573 40.6738V39.6738H68.7573V40.6738H65.7573ZM59.7574 40.6738V39.6738H62.7574V40.6738H59.7574ZM53.7466 40.6738V39.6738H56.7466V40.6738H53.7466ZM47.7466 40.6738V39.6738H50.7544V40.6738H47.7466ZM41.7466 40.6738V39.6738H44.7534V40.6738H41.7466ZM744.995 39.6289C746.001 39.5959 747.001 39.539 747.969 39.459L748.049 40.459C747.067 40.533 746.05 40.5899 745.033 40.6289L744.995 39.6289ZM750.924 39.1484C751.924 39.0214 752.912 38.8655 753.862 38.6855L754.045 39.668C753.077 39.852 752.072 40.0115 751.057 40.1445L750.924 39.1484ZM756.759 38.0488C757.732 37.8028 758.691 37.5237 759.607 37.2227L759.922 38.1758C758.978 38.4828 757.996 38.7656 757.005 39.0156L756.759 38.0488ZM762.387 36.1973C763.307 35.8143 764.21 35.3972 765.069 34.9512L765.527 35.8438C764.644 36.2968 763.715 36.7272 762.77 37.1172L762.387 36.1973ZM767.632 33.4824C768.467 32.9554 769.279 32.3832 770.049 31.7832L770.663 32.5781C769.87 33.1911 769.028 33.7782 768.17 34.3242L767.632 33.4824ZM772.292 29.8711C773.005 29.1951 773.692 28.4822 774.331 27.7422L775.086 28.3984C774.42 29.1644 773.713 29.9037 772.977 30.5977L772.292 29.8711ZM776.153 25.4238C776.72 24.6308 777.252 23.7905 777.752 22.9355L778.622 23.4434C778.107 24.3224 777.554 25.185 776.974 26.002L776.153 25.4238ZM779.114 20.3184C779.524 19.4354 779.902 18.518 780.247 17.584L781.186 17.9336C780.832 18.8926 780.44 19.8324 780.02 20.7324L779.114 20.3184ZM781.153 14.7695C781.418 13.8335 781.653 12.8618 781.853 11.8848L782.834 12.0859C782.634 13.0859 782.392 14.0782 782.117 15.0352L781.153 14.7695ZM782.346 8.9707C782.478 7.9937 782.578 7.00163 782.647 6.01562L783.647 6.08203C783.581 7.09203 783.476 8.10556 783.346 9.10156L782.346 8.9707ZM782.747 3.05078C782.747 1.23878 782.62 0.122281 782.62 0.113281L783.611 0C783.708 1.01405 783.753 2.03213 783.748 3.05078H782.747Z" fill="url(#paint0_linear_355_18)"/>
<defs>
<linearGradient id="paint0_linear_355_18" x1="391.874" y1="0" x2="391.874" y2="80.3574" gradientUnits="userSpaceOnUse">
<stop stop-color="#5A4BDA"/>
<stop offset="1" stop-color="#EB427E"/>
</linearGradient>
</defs>
</svg>
