<svg width="323" height="74" viewBox="0 0 323 74" fill="none" xmlns="http://www.w3.org/2000/svg">
<path d="M23.4865 7.33027C36.2679 7.33027 44.7018 14.4021 46.0641 25.7971H35.6841C34.6458 19.7067 29.8446 16.4979 23.6167 16.4979C15.6365 16.4979 10.3809 21.5404 10.3809 31.036C10.3809 40.5965 15.6365 45.639 23.6167 45.639C29.8446 45.639 34.6458 42.3645 35.6841 36.2741H46.0641C44.7018 47.7341 36.2679 54.8066 23.4865 54.8066C8.95339 54.8066 0 44.5253 0 31.036C0 17.6116 8.95339 7.33027 23.4865 7.33027Z" fill="#533190"/>
<path d="M103.425 45.64C109.134 45.64 112.897 43.2169 112.897 39.1567L104.527 40.3353C101.413 40.7931 99.8565 41.2526 99.8565 43.1512C99.8565 45.0498 101.673 45.64 103.425 45.64ZM102.581 34.7035L112.897 33.2627C112.897 30.5775 110.821 28.9411 106.344 28.9411C102.192 28.9411 99.8565 30.709 99.8565 33.7213H90.1246C90.1246 25.3394 97.1961 20.4277 106.344 20.4277C115.363 20.4277 123.278 24.8151 123.278 35.6857V44.9841H128.014V54.1526H120.812C117.698 54.1526 115.947 52.3854 115.947 49.2416V48.5865L117.568 44.657H114.973C113.741 50.158 110.561 54.8076 101.413 54.8076C91.2272 54.8076 89.4756 48.5216 89.4756 45.1156C89.4756 39.4189 92.8493 36.0794 102.581 34.7035Z" fill="#533190"/>
<path d="M147.872 20.4277C156.825 20.4277 165 25.3394 165.453 34.7685H155.073C154.684 31.8219 152.024 29.5953 147.872 29.5953C142.941 29.5953 140.346 32.5427 140.346 37.5852C140.346 42.6926 142.941 45.64 147.872 45.64C152.024 45.64 154.684 43.4134 155.073 40.466H165.453C165 49.8958 156.825 54.8076 147.872 54.8076C137.426 54.8076 129.965 48.6523 129.965 37.5852C129.965 26.583 137.426 20.4277 147.872 20.4277Z" fill="#533190"/>
<path d="M206.202 36.2748V54.1523H195.821V37.9129C195.821 31.8874 194.069 29.5951 189.073 29.5951C183.429 29.5951 179.731 32.6074 179.731 41.9066V54.1523H169.351V6.0209H179.731V25.077L177.784 30.971H180.38C181.678 25.077 185.765 20.4275 192.772 20.4275C201.141 20.4275 206.202 26.0592 206.202 36.2748Z" fill="#533190"/>
<path d="M217.429 12.5691C217.429 9.22966 219.699 7.33021 223.527 7.33021C227.355 7.33021 229.756 9.22966 229.756 12.5691C229.756 15.9743 227.355 17.808 223.527 17.808C219.699 17.808 217.429 15.9743 217.429 12.5691ZM210.098 44.9839H219.375V29.8573L211.395 30.2502V21.0825L223.722 20.4275C227.355 20.231 229.367 22.2603 229.367 25.9285V44.9839H238.644V54.1523H210.098V44.9839Z" fill="#533190"/>
<path d="M258.5 20.231V21.0825H267.972V30.2502H258.5V44.9839H267.972V54.1523H241.892V44.9839H248.119V30.2502H241.892V21.0825H248.119V19.9039C248.119 10.9976 253.245 6.0209 264.21 6.0209H269.789V15.1886H262.912C259.862 15.1886 258.5 16.5636 258.5 20.231Z" fill="#533190"/>
<path d="M311.444 21.0829L296.456 52.1883V62.4039C296.456 66.0713 294.445 68.0357 290.878 67.905L274.852 67.4464V58.2779L286.076 58.4743V52.1883L271.089 21.0829H282.768L289.969 39.2875V44.5264H292.564V39.2875L299.701 21.0829H311.444Z" fill="#533190"/>
<path d="M67.0316 55.7167C63.7453 55.7167 60.7246 54.9532 57.9695 53.4263C55.2143 51.8661 53.0235 49.7251 51.397 47.0031C49.8036 44.248 49.007 41.1443 49.007 37.6921C49.007 34.2399 49.8036 31.1528 51.397 28.4308C53.0235 25.6757 55.2143 23.5346 57.9695 22.0077C60.7246 20.4807 63.7453 19.7172 67.0316 19.7172C70.351 19.7172 73.3717 20.4807 76.0937 22.0077C78.8488 23.5346 81.0231 25.6757 82.6164 28.4308C84.2098 31.1528 85.0064 34.2399 85.0064 37.6921C85.0064 41.1443 84.2098 44.248 82.6164 47.0031C81.0231 49.7251 78.8488 51.8661 76.0937 53.4263C73.3385 54.9532 70.3178 55.7167 67.0316 55.7167ZM67.0316 46.6546C69.5212 46.6546 71.4797 45.8413 72.907 44.2148C74.3676 42.5883 75.0979 40.414 75.0979 37.6921C75.0979 34.9037 74.3676 32.7129 72.907 31.1196C71.4797 29.493 69.5212 28.6798 67.0316 28.6798C64.5088 28.6798 62.5337 29.493 61.1064 31.1196C59.679 32.7129 58.9653 34.9037 58.9653 37.6921C58.9653 40.4472 59.679 42.6381 61.1064 44.2646C62.5337 45.8579 64.5088 46.6546 67.0316 46.6546Z" fill="#533190"/>
<path d="M322.585 16.7784C322.585 19.6842 320.248 22.0345 317.371 22.0345C314.494 22.0345 312.156 19.6842 312.156 16.7784C312.156 13.8727 314.494 11.5224 317.371 11.5224C320.248 11.5224 322.585 13.8727 322.585 16.7784Z" stroke="#533190" stroke-width="0.829863"/>
<path d="M315.612 20.4375V14.7322H317.479C319.042 14.7322 319.823 15.2923 319.823 16.4127C319.823 17.2218 319.401 17.7681 318.558 18.0516L319.989 20.4375H318.838L317.531 18.2176C317.427 18.2245 317.278 18.228 317.085 18.228C316.988 18.228 316.836 18.2211 316.628 18.2072V20.4375H315.612ZM317.375 15.645H316.628V17.284C316.801 17.3048 316.967 17.3151 317.126 17.3151C317.652 17.3151 318.06 17.2598 318.35 17.1492C318.647 17.0316 318.796 16.793 318.796 16.4334C318.796 16.1222 318.668 15.9147 318.412 15.811C318.163 15.7004 317.818 15.645 317.375 15.645Z" fill="#533190"/>
</svg>
